<svg 
 xmlns="http://www.w3.org/2000/svg"
 xmlns:xlink="http://www.w3.org/1999/xlink"
 viewBox="0 0 660 323"
 width="660px" height="323px"
 preserveAspectRatio="xMidYmid meet">
<path fill-rule="evenodd"  fill="rgb(0, 228, 254)"
 d="M648.908,154.742 C643.230,153.19 638.114,151.724 633.553,150.857 C628.985,149.995 623.250,149.562 616.348,149.562 C604.999,149.562 593.835,152.892 582.863,159.552 C571.884,166.212 562.449,177.809 554.558,194.332 L554.558,289.791 L500.168,289.791 L500.168,106.272 L544.568,106.272 L549.8,146.232 L550.118,146.232 C559.240,131.189 570.219,120.25 583.48,112.747 C595.870,105.474 609.688,101.832 624.488,101.832 C632.628,101.832 639.224,102.450 644.283,103.682 C649.335,104.919 654.579,106.769 660.8,109.232 L648.908,154.742 ZM382.141,270.922 L381.31,270.922 C374.122,277.582 366.231,283.132 357.351,287.572 C348.471,292.11 339.342,294.231 329.971,294.231 C318.374,294.231 307.829,292.11 298.336,287.572 C288.837,283.132 280.697,276.784 273.916,268.517 C267.129,260.255 261.891,250.202 258.191,238.362 C254.491,226.522 252.641,213.80 252.641,198.32 C252.641,182.989 254.861,169.542 259.301,157.702 C263.741,145.862 269.597,135.814 276.876,127.547 C284.149,119.285 292.474,112.932 301.851,108.492 C311.222,104.52 320.964,101.832 331.81,101.832 C341.684,101.832 350.564,103.624 357.721,107.197 C364.872,110.775 371.654,115.522 378.71,121.442 L376.221,92.952 L376.221,30.422 L430.611,30.422 L430.611,289.791 L386.211,289.791 L382.141,270.922 ZM376.221,158.442 C371.284,154.2 366.289,150.857 361.236,149.7 C356.177,147.157 350.934,146.232 345.511,146.232 C335.394,146.232 326.699,150.429 319.426,158.812 C312.147,167.200 308.511,180.29 308.511,197.292 C308.511,215.549 311.592,228.869 317.761,237.252 C323.924,245.640 332.682,249.832 344.31,249.832 C350.194,249.832 355.871,248.537 361.51,245.947 C366.231,243.357 371.284,238.980 376.221,232.812 L376.221,158.442 ZM111.859,322.846 L232.849,0.946 L249.499,0.946 L128.509,322.846 L111.859,322.846 ZM0.862,322.846 L121.852,0.946 L138.502,0.946 L17.512,322.846 L0.862,322.846 Z"/>
</svg>